<svg xmlns="http://www.w3.org/2000/svg" width="95.705" height="115.135" viewBox="0 0 95.705 115.135">
  <g id="Group_153" data-name="Group 153" transform="translate(-40.856)">
    <g id="Group_152" data-name="Group 152" transform="translate(40.856)">
      <path id="Path_53" data-name="Path 53" d="M128.349,0h-63.6a8.222,8.222,0,0,0-8.211,8.211v5.244H49.067a8.222,8.222,0,0,0-8.211,8.211v85.257a8.222,8.222,0,0,0,8.211,8.211h63.6a8.222,8.222,0,0,0,8.211-8.211V101.68h7.473a8.222,8.222,0,0,0,8.211-8.211V8.211A8.222,8.222,0,0,0,128.349,0ZM114.308,106.924a1.646,1.646,0,0,1-1.643,1.642h-63.6a1.646,1.646,0,0,1-1.642-1.642V21.667a1.646,1.646,0,0,1,1.642-1.642h7.475V93.469a8.222,8.222,0,0,0,8.211,8.211h49.554v5.244Zm15.684-13.455a1.645,1.645,0,0,1-1.643,1.642h-63.6a1.645,1.645,0,0,1-1.642-1.642V8.211a1.644,1.644,0,0,1,1.642-1.642h63.6a1.645,1.645,0,0,1,1.643,1.642V93.469Z" transform="translate(-40.856 0)" fill="#51b371"/>
      <path id="Path_54" data-name="Path 54" d="M211.428,85.786H163.257a3.284,3.284,0,1,0,0,6.569h48.171a3.284,3.284,0,0,0,0-6.569Z" transform="translate(-131.647 -65.387)" fill="#51b371"/>
      <path id="Path_55" data-name="Path 55" d="M211.428,151.529H163.257a3.284,3.284,0,1,0,0,6.569h48.171a3.284,3.284,0,0,0,0-6.569Z" transform="translate(-131.647 -115.496)" fill="#51b371"/>
      <path id="Path_56" data-name="Path 56" d="M211.428,217.27H163.257a3.285,3.285,0,1,0,0,6.569h48.171a3.285,3.285,0,0,0,0-6.569Z" transform="translate(-131.647 -165.604)" fill="#51b371"/>
      <path id="Path_57" data-name="Path 57" d="M211.428,283.014H163.257a3.284,3.284,0,1,0,0,6.569h48.171a3.284,3.284,0,0,0,0-6.569Z" transform="translate(-131.647 -215.715)" fill="#51b371"/>
    </g>
  </g>
</svg>
