<svg xmlns="http://www.w3.org/2000/svg" width="133" height="105.346" viewBox="0 0 133 105.346">
  <g id="Group_151" data-name="Group 151" transform="translate(0 -50.839)">
    <path id="Path_52" data-name="Path 52" d="M83.173,79.662c-9.193-5.3-24.043-5.3-33.182,0s-9.084,13.926.109,19.229,24.043,5.3,33.182,0C92.42,93.561,92.366,84.966,83.173,79.662Zm-4.216,8.35c-.789.245-1.577.517-2.366.762a1.454,1.454,0,0,1-1.006.054,1.393,1.393,0,0,1-.326-.354A6.366,6.366,0,0,0,72.892,86.3c-.136-.082-.3-.163-.462-.245a4.536,4.536,0,0,0-1.115-.435c-1.523-.354-2.883.218-2.693,1.17a3.47,3.47,0,0,0,.68,1.387,15.633,15.633,0,0,1,1.523,2.339c1.278,2.557-1.5,5.086-5.956,5.331a12.5,12.5,0,0,1-4.542-.571,1.621,1.621,0,0,0-1.55.136c-.462.3-.979.571-1.469.843a1.3,1.3,0,0,1-1.333.027c-.326-.163-.626-.354-.952-.517-.218-.136-.435-.245-.653-.381-.462-.272-.408-.544.027-.816.354-.218.707-.408,1.034-.626.789-.462.789-.49.136-1.006a8.56,8.56,0,0,1-2.013-2.094c-.354-.6-.272-.734.68-1.061.707-.218,1.387-.462,2.094-.68a1.421,1.421,0,0,1,1.034-.082.926.926,0,0,1,.326.381,7.788,7.788,0,0,0,2.2,2.366,5.823,5.823,0,0,0,.517.354,6.664,6.664,0,0,0,1.8.68c1.768.408,3.345-.3,3.182-1.414a2.5,2.5,0,0,0-.49-1.061,18.542,18.542,0,0,1-1.8-2.693c-.653-1.523-.354-2.91,1.741-4a10.732,10.732,0,0,1,7.888-.544c1.17.326,1.142.326,2.04-.19.3-.19.6-.354.9-.517a1.27,1.27,0,0,1,1.6,0c.218.109.408.245.626.354,1.442.816,1.442.816.027,1.659-1.006.571-1.006.571-.163,1.251a6.791,6.791,0,0,1,1.55,1.659C79.61,87.6,79.5,87.849,78.957,88.012Zm16.482,17.9a10.141,10.141,0,0,1-9.193,0c-2.529-1.469-2.557-3.862-.027-5.331a10.141,10.141,0,0,1,9.193,0C97.969,102.047,98,104.44,95.439,105.909ZM47.026,77.949a10.141,10.141,0,0,1-9.193,0c-2.557-1.469-2.557-3.862-.027-5.331a10.141,10.141,0,0,1,9.193,0C49.528,74.087,49.556,76.48,47.026,77.949Zm82.819,16.564L57.361,52.654a16.71,16.71,0,0,0-15.149,0L3.346,75.229C-.816,77.65-.789,81.593,3.4,84.014l72.483,41.858a16.71,16.71,0,0,0,15.149,0L129.872,103.3C134.061,100.877,134.034,96.933,129.845,94.513ZM91.822,117.9a9.047,9.047,0,0,0-1.659-1.224,16.94,16.94,0,0,0-15.34,0,10.292,10.292,0,0,0-.9.6l-56.273-32.5a13.553,13.553,0,0,0,1.55-.734c4.216-2.448,4.189-6.419-.054-8.867a9.138,9.138,0,0,0-1.469-.707l23.2-13.49a8.756,8.756,0,0,0,1.224.843,16.939,16.939,0,0,0,15.34,0,7.611,7.611,0,0,0,1.278-.9l56.464,32.584a12.267,12.267,0,0,0-2.094.952c-4.216,2.448-4.216,6.446.054,8.894a12.849,12.849,0,0,0,2.149.952ZM1.5,92.391a7.41,7.41,0,0,1,6.473.218l75.774,43.735L124.7,112.518a7.145,7.145,0,0,1,6.473,0c1.8,1.034,1.8,2.72.027,3.753L87.66,141.566a8.473,8.473,0,0,1-7.752,0l-1.523-.87-1.061-.626L1.36,96.226C-.489,95.165-.462,93.4,1.5,92.391Zm129.763,37.561L87.715,155.246a8.473,8.473,0,0,1-7.752,0l-1.5-.87-1.088-.626L1.415,109.907c-1.849-1.061-1.8-2.829.163-3.835a7.413,7.413,0,0,1,6.473.218L83.8,150.024l40.961-23.8a7.145,7.145,0,0,1,6.473,0C133.027,127.232,133.054,128.919,131.259,129.952Z" transform="translate(0)" fill="#51b371"/>
  </g>
</svg>
