<svg xmlns="http://www.w3.org/2000/svg" width="105.314" height="105.314" viewBox="0 0 105.314 105.314">
  <path id="Icon_open-magnifying-glass" data-name="Icon open-magnifying-glass" d="M43.02.078a43.02,43.02,0,1,0,0,86.04,42.52,42.52,0,0,0,20.4-5.039,12.291,12.291,0,0,0,1.6,1.6L77.313,94.967a12.537,12.537,0,1,0,17.7-17.7L82.721,64.976a12.292,12.292,0,0,0-1.967-1.6,42.442,42.442,0,0,0,5.408-20.4A43.067,43.067,0,0,0,43.143-.045Zm0,12.291A30.583,30.583,0,0,1,73.748,43.1a30.821,30.821,0,0,1-8.112,21.141l-.369.369a12.291,12.291,0,0,0-1.6,1.6A30.757,30.757,0,0,1,42.9,73.949a30.728,30.728,0,0,1,0-61.457Z" transform="translate(3 3.045)" fill="none" stroke="#51b371" stroke-width="6"/>
</svg>
